<svg width="103" height="84" viewBox="0 0 103 84" fill="none" xmlns="http://www.w3.org/2000/svg">
<path d="M101.172 79.1388C100.511 76.7923 99.9237 74.5925 99.2629 72.3926C99.0427 71.7326 99.1161 71.2193 99.4832 70.5594C107.339 58.0202 101.465 41.8145 87.5163 37.1215C74.6684 32.8684 60.7927 41.1546 58.3699 54.5004C56.1674 66.5996 64.023 78.1856 75.9899 80.5321C82.01 81.7053 87.5897 80.6787 92.7288 77.3789C93.2428 77.0856 93.6098 77.0123 94.1972 77.159C96.3997 77.8189 98.749 78.4789 101.172 79.1388Z" fill="#38B6E9"/>
<path d="M6.15951 77.8239C7.3042 73.7539 8.3217 69.9382 9.46639 66.1226C9.84796 64.9779 9.72077 64.0876 9.08483 62.9429C-4.52427 41.1938 5.65076 13.0852 29.8165 4.94521C52.0743 -2.43169 76.1128 11.9405 80.31 35.0887C84.1257 56.0747 70.5166 76.1704 49.785 80.2404C39.3555 82.2754 29.6893 80.4948 20.7861 74.7714C19.8958 74.2626 19.2599 74.1354 18.2424 74.3898C14.4267 75.5345 10.3567 76.6792 6.15951 77.8239Z" stroke="#333333" stroke-width="4"/>
<path d="M27.7812 31.2727C27.9084 26.6939 29.6891 23.1327 33.1231 20.3346C38.9738 15.6286 47.3682 16.3917 52.3285 21.8608C57.2888 27.4571 57.1616 35.9787 51.9469 41.1934C50.0391 43.1012 48.0041 44.7546 46.2235 46.5353C45.8419 46.9168 45.5876 47.5528 45.5876 48.1887C45.4604 49.715 45.5876 51.114 45.5876 52.6403C43.171 52.6403 40.8816 52.6403 38.5922 52.6403C38.5922 49.8421 38.5922 47.1712 38.5922 44.3731C38.5922 43.9915 38.9738 43.6099 39.3553 43.3556C41.8991 40.939 44.57 38.6496 46.9866 36.233C49.1488 34.198 49.6576 31.0183 48.5129 28.3474C47.3682 25.6764 44.57 24.023 41.6447 24.1502C38.3378 24.2774 35.5397 26.8211 35.031 30.128C35.031 30.3824 34.9038 30.764 34.9038 31.1455C32.4872 31.2727 30.1978 31.2727 27.7812 31.2727Z" fill="#333333"/>
<path d="M38.4657 59.8903C40.7551 59.8903 43.0444 59.8903 45.3338 59.8903C45.3338 62.1797 45.3338 64.4691 45.3338 66.8856C43.0444 66.8856 40.7551 66.8856 38.4657 66.8856C38.4657 64.5962 38.4657 62.3069 38.4657 59.8903Z" fill="#333333"/>
</svg>
