<svg width="103" height="103" viewBox="0 0 103 103" fill="none" xmlns="http://www.w3.org/2000/svg">
<path d="M85.8359 12.875H17.1693C12.4055 12.875 8.58594 16.6946 8.58594 21.4583V72.9583C8.58594 75.2348 9.49025 77.418 11.0999 79.0277C12.7096 80.6374 14.8928 81.5417 17.1693 81.5417H33.3359C33.8882 81.5417 34.3359 81.9894 34.3359 82.5417V89.125C34.3359 89.6773 34.7837 90.125 35.3359 90.125H67.6693C68.2216 90.125 68.6693 89.6773 68.6693 89.125V82.5417C68.6693 81.9894 69.117 81.5417 69.6693 81.5417H85.8359C90.5568 81.5417 94.4193 77.6792 94.4193 72.9583V21.4583C94.4193 19.1819 93.515 16.9987 91.9053 15.389C90.2956 13.7793 88.1124 12.875 85.8359 12.875ZM85.8359 71.9583C85.8359 72.5106 85.3882 72.9583 84.8359 72.9583H18.1693C17.617 72.9583 17.1693 72.5106 17.1693 71.9583V22.4583C17.1693 21.906 17.617 21.4583 18.1693 21.4583H84.8359C85.3882 21.4583 85.8359 21.906 85.8359 22.4583V71.9583Z" fill="#333333" stroke="white" stroke-width="3" stroke-linejoin="round"/>
<path d="M70.8125 41.3441H70.3125V41.8441V46.7087H64.875V30.542H70.3125V35.4066V35.9066H70.8125H76.75V41.3441H70.8125ZM32.1875 53.0732H32.6875V52.5732V47.7087H38.125V63.8753H32.6875V59.0107V58.5107H32.1875H26.25V53.0732H32.1875ZM26.25 35.9066H59.5833V41.3441H26.25V35.9066ZM76.75 53.0732V58.5107H43.4167V53.0732H76.75Z" fill="#38B6E9" stroke="white"/>
</svg>
