<svg width="106" height="106" viewBox="0 0 106 106" fill="none" xmlns="http://www.w3.org/2000/svg">
<path d="M58.3031 67.5746C57.6003 67.5746 56.9263 67.8538 56.4293 68.3508C55.9323 68.8477 55.6531 69.5218 55.6531 70.2246C55.6531 70.9274 55.9323 71.6015 56.4293 72.0984C56.9263 72.5954 57.6003 72.8746 58.3031 72.8746H71.5531C72.256 72.8746 72.93 72.5954 73.427 72.0984C73.9239 71.6015 74.2031 70.9274 74.2031 70.2246C74.2031 69.5218 73.9239 68.8477 73.427 68.3508C72.93 67.8538 72.256 67.5746 71.5531 67.5746H58.3031ZM55.6531 43.7246C55.6531 43.0218 55.9323 42.3477 56.4293 41.8508C56.9263 41.3538 57.6003 41.0746 58.3031 41.0746H71.5531C72.256 41.0746 72.93 41.3538 73.427 41.8508C73.9239 42.3477 74.2031 43.0218 74.2031 43.7246C74.2031 44.4274 73.9239 45.1015 73.427 45.5984C72.93 46.0954 72.256 46.3746 71.5531 46.3746H58.3031C57.6003 46.3746 56.9263 46.0954 56.4293 45.5984C55.9323 45.1015 55.6531 44.4274 55.6531 43.7246ZM45.0531 10.5996C43.4084 10.5987 41.8039 11.108 40.4607 12.0573C39.1176 13.0065 38.1019 14.3489 37.5536 15.8996H29.1531C27.0447 15.8996 25.0225 16.7372 23.5316 18.2281C22.0407 19.719 21.2031 21.7411 21.2031 23.8496V87.4496C21.2031 89.5581 22.0407 91.5802 23.5316 93.0711C25.0225 94.562 27.0447 95.3996 29.1531 95.3996H76.8531C78.9616 95.3996 80.9837 94.562 82.4746 93.0711C83.9655 91.5802 84.8031 89.5581 84.8031 87.4496V23.8496C84.8031 21.7411 83.9655 19.719 82.4746 18.2281C80.9837 16.7372 78.9616 15.8996 76.8531 15.8996H68.4526C67.9044 14.3489 66.8887 13.0065 65.5455 12.0573C64.2024 11.108 62.5979 10.5987 60.9531 10.5996H45.0531ZM42.4031 18.5496C42.4031 17.8468 42.6823 17.1727 43.1793 16.6758C43.6763 16.1788 44.3503 15.8996 45.0531 15.8996H60.9531C61.656 15.8996 62.33 16.1788 62.827 16.6758C63.3239 17.1727 63.6031 17.8468 63.6031 18.5496C63.6031 19.2524 63.3239 19.9265 62.827 20.4234C62.33 20.9204 61.656 21.1996 60.9531 21.1996H45.0531C44.3503 21.1996 43.6763 20.9204 43.1793 20.4234C42.6823 19.9265 42.4031 19.2524 42.4031 18.5496ZM29.1531 21.1996H37.5536C38.1019 22.7503 39.1176 24.0927 40.4607 25.042C41.8039 25.9912 43.4084 26.5005 45.0531 26.4996H60.9531C62.5979 26.5005 64.2024 25.9912 65.5455 25.042C66.8887 24.0927 67.9044 22.7503 68.4526 21.1996H76.8531C77.556 21.1996 78.23 21.4788 78.727 21.9758C79.2239 22.4727 79.5031 23.1468 79.5031 23.8496V87.4496C79.5031 88.1524 79.2239 88.8265 78.727 89.3234C78.23 89.8204 77.556 90.0996 76.8531 90.0996H29.1531C28.4503 90.0996 27.7763 89.8204 27.2793 89.3234C26.7823 88.8265 26.5031 88.1524 26.5031 87.4496V23.8496C26.5031 23.1468 26.7823 22.4727 27.2793 21.9758C27.7763 21.4788 28.4503 21.1996 29.1531 21.1996Z" fill="#333333"/>
<path d="M50.1553 65.2338C50.0217 64.9119 49.8259 64.6194 49.5791 64.3733C49.3329 64.1265 49.0405 63.9307 48.7185 63.7971C48.3966 63.6635 48.0514 63.5947 47.7029 63.5947C47.3543 63.5947 47.0092 63.6635 46.6872 63.7971C46.3653 63.9307 46.0728 64.1265 45.8267 64.3733L38.3431 71.8622L36.239 69.9383C35.7162 69.4914 35.0401 69.2653 34.3537 69.3077C33.6673 69.3502 33.0242 69.6578 32.5604 70.1656C32.0966 70.6735 31.8484 71.3417 31.8683 72.0292C31.8881 72.7166 32.1745 73.3694 32.6668 73.8497L36.6418 77.4802C37.145 77.941 37.8067 78.1899 38.4889 78.1751C39.1711 78.1603 39.8213 77.8829 40.3041 77.4007L49.5791 68.1257C49.8259 67.8795 50.0217 67.5871 50.1553 67.2651C50.2889 66.9432 50.3576 66.598 50.3576 66.2495C50.3576 65.9009 50.2889 65.5558 50.1553 65.2338Z" fill="#38B6E9"/>
<path d="M50.3562 39.7495C50.3562 40.4533 50.0767 41.1281 49.5791 41.6257L49.5738 41.6204L40.2988 50.8954C39.8169 51.3768 39.1682 51.6542 38.4873 51.67C37.8063 51.6858 37.1454 51.4388 36.6418 50.9802L32.6668 47.3497C32.1745 46.8695 31.8881 46.2167 31.8683 45.5292C31.8484 44.8418 32.0966 44.1735 32.5604 43.6657C33.0242 43.1579 33.6673 42.8502 34.3537 42.8078C35.0401 42.7654 35.7162 42.9915 36.239 43.4383L38.3431 45.3569L45.8267 37.8733C46.3243 37.3757 46.9992 37.0962 47.7029 37.0962C48.4066 37.0962 49.0815 37.3757 49.5791 37.8733C50.0767 38.3709 50.3562 39.0458 50.3562 39.7495Z" fill="#38B6E9"/>
</svg>
