<svg width="179" height="48" viewBox="0 0 179 48" fill="none" xmlns="http://www.w3.org/2000/svg">
<path d="M5.44966 1.74951H1.87012V21.5375H11.0201C12.5283 21.5375 13.755 20.3108 13.755 18.8026V10.0548C13.755 5.46982 10.0347 1.74951 5.44966 1.74951Z" fill="#2F77AD"/>
<path d="M11.9051 44.9851H13.7552V26.2227C13.7552 24.7145 12.5285 23.4878 11.0202 23.4878H1.8703V34.9303C1.8703 40.4806 6.35478 44.9851 11.9051 44.9851Z" fill="#2F77AD"/>
<path opacity="0.8" d="M30.1647 12.1867H8.60705C4.88674 12.1867 1.85016 9.17026 1.85016 5.42985V1.74976H40.2196V2.11173C40.2196 7.68214 35.715 12.1867 30.1647 12.1867Z" fill="#38B6E9"/>
<path d="M31.0899 24.4939C31.0899 28.0132 28.2343 30.8687 24.7151 30.8687C21.1959 30.8687 18.3403 28.0132 18.3403 24.4939C18.3403 20.9747 21.1959 18.1191 24.7151 18.1191C28.2343 18.1191 31.0899 20.9747 31.0899 24.4939Z" fill="#38B6E9"/>
<path d="M28.3348 24.6347C28.3348 26.6456 26.7059 28.2544 24.715 28.2544C22.7041 28.2544 21.0953 26.6255 21.0953 24.6347C21.0953 22.6237 22.7242 21.0149 24.715 21.0149C26.7059 21.0149 28.3348 22.6438 28.3348 24.6347Z" fill="#2F77AD"/>
<path d="M26.8266 21.0952C26.3037 21.0952 25.8814 21.5175 25.8814 22.0404C25.8814 22.5632 26.3037 22.9855 26.8266 22.9855C27.3494 22.9855 27.7717 22.5632 27.7717 22.0404C27.7717 21.5175 27.3494 21.0952 26.8266 21.0952Z" fill="white"/>
<path d="M62.33 15.62V21.91H73.346V26.33H62.33V35H56.822V11.2H74.808V15.62H62.33Z" fill="#2F77AD"/>
<path d="M89.8304 35.408C87.3598 35.408 85.1271 34.8753 83.1324 33.81C81.1604 32.7447 79.6078 31.2827 78.4744 29.424C77.3638 27.5427 76.8084 25.4347 76.8084 23.1C76.8084 20.7653 77.3638 18.6687 78.4744 16.81C79.6078 14.9287 81.1604 13.4553 83.1324 12.39C85.1271 11.3247 87.3598 10.792 89.8304 10.792C92.3011 10.792 94.5224 11.3247 96.4944 12.39C98.4664 13.4553 100.019 14.9287 101.152 16.81C102.286 18.6687 102.852 20.7653 102.852 23.1C102.852 25.4347 102.286 27.5427 101.152 29.424C100.019 31.2827 98.4664 32.7447 96.4944 33.81C94.5224 34.8753 92.3011 35.408 89.8304 35.408ZM89.8304 30.716C91.2358 30.716 92.5051 30.3987 93.6384 29.764C94.7718 29.1067 95.6558 28.2 96.2904 27.044C96.9478 25.888 97.2764 24.5733 97.2764 23.1C97.2764 21.6267 96.9478 20.312 96.2904 19.156C95.6558 18 94.7718 17.1047 93.6384 16.47C92.5051 15.8127 91.2358 15.484 89.8304 15.484C88.4251 15.484 87.1558 15.8127 86.0224 16.47C84.8891 17.1047 83.9938 18 83.3364 19.156C82.7018 20.312 82.3844 21.6267 82.3844 23.1C82.3844 24.5733 82.7018 25.888 83.3364 27.044C83.9938 28.2 84.8891 29.1067 86.0224 29.764C87.1558 30.3987 88.4251 30.716 89.8304 30.716Z" fill="#2F77AD"/>
<path d="M117.387 26.568V35H111.879V26.5L102.665 11.2H108.513L114.871 21.774L121.229 11.2H126.635L117.387 26.568Z" fill="#2F77AD"/>
<path d="M139.436 35.408C136.965 35.408 134.733 34.8753 132.738 33.81C130.766 32.7447 129.213 31.2827 128.08 29.424C126.969 27.5427 126.414 25.4347 126.414 23.1C126.414 20.7653 126.969 18.6687 128.08 16.81C129.213 14.9287 130.766 13.4553 132.738 12.39C134.733 11.3247 136.965 10.792 139.436 10.792C141.907 10.792 144.128 11.3247 146.1 12.39C148.072 13.4553 149.625 14.9287 150.758 16.81C151.891 18.6687 152.458 20.7653 152.458 23.1C152.458 25.4347 151.891 27.5427 150.758 29.424C149.625 31.2827 148.072 32.7447 146.1 33.81C144.128 34.8753 141.907 35.408 139.436 35.408ZM139.436 30.716C140.841 30.716 142.111 30.3987 143.244 29.764C144.377 29.1067 145.261 28.2 145.896 27.044C146.553 25.888 146.882 24.5733 146.882 23.1C146.882 21.6267 146.553 20.312 145.896 19.156C145.261 18 144.377 17.1047 143.244 16.47C142.111 15.8127 140.841 15.484 139.436 15.484C138.031 15.484 136.761 15.8127 135.628 16.47C134.495 17.1047 133.599 18 132.942 19.156C132.307 20.312 131.99 21.6267 131.99 23.1C131.99 24.5733 132.307 25.888 132.942 27.044C133.599 28.2 134.495 29.1067 135.628 29.764C136.761 30.3987 138.031 30.716 139.436 30.716Z" fill="#2F77AD"/>
<path d="M174.073 22.624C175.433 23.0547 176.499 23.78 177.269 24.8C178.04 25.7973 178.425 27.0327 178.425 28.506C178.425 30.5913 177.609 32.2007 175.977 33.334C174.368 34.4447 172.011 35 168.905 35H156.597V11.2H168.225C171.127 11.2 173.348 11.7553 174.889 12.866C176.453 13.9767 177.235 15.484 177.235 17.388C177.235 18.544 176.952 19.5753 176.385 20.482C175.841 21.3887 175.071 22.1027 174.073 22.624ZM162.071 15.348V20.958H167.545C168.905 20.958 169.937 20.72 170.639 20.244C171.342 19.768 171.693 19.0653 171.693 18.136C171.693 17.2067 171.342 16.5153 170.639 16.062C169.937 15.586 168.905 15.348 167.545 15.348H162.071ZM168.497 30.852C169.948 30.852 171.036 30.614 171.761 30.138C172.509 29.662 172.883 28.9253 172.883 27.928C172.883 25.956 171.421 24.97 168.497 24.97H162.071V30.852H168.497Z" fill="#2F77AD"/>
</svg>
