<svg width="97" height="97" viewBox="0 0 97 97" fill="none" xmlns="http://www.w3.org/2000/svg">
<path d="M19.3992 9.69971C16.8266 9.69971 14.3594 10.7217 12.5403 12.5408C10.7212 14.3599 9.69922 16.8271 9.69922 19.3997V63.0497C9.69922 65.6223 10.7212 68.0895 12.5403 69.9086C14.3594 71.7277 16.8266 72.7497 19.3992 72.7497H33.9492V82.4497H26.6742C26.0311 82.4497 25.4143 82.7052 24.9595 83.16C24.5047 83.6147 24.2492 84.2316 24.2492 84.8747C24.2492 85.5179 24.5047 86.1347 24.9595 86.5894C25.4143 87.0442 26.0311 87.2997 26.6742 87.2997H53.3492L53.3541 82.4497H38.7992V72.7497H53.3589L53.3638 67.8997H19.3992C18.1129 67.8997 16.8793 67.3887 15.9698 66.4792C15.0602 65.5696 14.5492 64.336 14.5492 63.0497V19.3997C14.5492 18.1134 15.0602 16.8798 15.9698 15.9702C16.8793 15.0607 18.1129 14.5497 19.3992 14.5497H77.5992C78.8855 14.5497 80.1191 15.0607 81.0287 15.9702C81.9382 16.8798 82.4492 18.1134 82.4492 19.3997V62.2883L86.6784 66.4787C87.0761 65.4117 87.2992 64.2574 87.2992 63.0497V19.3997C87.2992 16.8271 86.2773 14.3599 84.4582 12.5408C82.6391 10.7217 80.1718 9.69971 77.5992 9.69971H19.3992Z" fill="#333333"/>
<path d="M58.7454 83.8625L58.1232 50.4112C58.0794 48.0588 60.9089 46.8355 62.5926 48.479L88.2915 73.5631C90.2224 75.4478 88.4044 78.6712 85.7926 77.9938L72.8615 74.6401C71.7822 74.3601 70.6436 74.7908 70.0196 75.7149L63.5578 85.2861C62.1194 87.4168 58.7932 86.4328 58.7454 83.8625Z" fill="#38B6E9"/>
<circle cx="36" cy="33" r="6" stroke="#38B6E9" stroke-width="2"/>
</svg>
