<svg width="96" height="96" viewBox="0 0 96 96" fill="none" xmlns="http://www.w3.org/2000/svg">
<path d="M12 28.4995C12 25.1843 13.317 22.0049 15.6612 19.6607C18.0054 17.3165 21.1848 15.9995 24.5 15.9995H41C41.663 15.9995 42.2989 16.2629 42.7678 16.7317C43.2366 17.2006 43.5 17.8365 43.5 18.4995C43.5 19.1626 43.2366 19.7984 42.7678 20.2673C42.2989 20.7361 41.663 20.9995 41 20.9995H24.5C22.5109 20.9995 20.6032 21.7897 19.1967 23.1962C17.7902 24.6027 17 26.5104 17 28.4995V71.4995C17 73.4886 17.7902 75.3963 19.1967 76.8028C20.6032 78.2093 22.5109 78.9995 24.5 78.9995H67.5C69.4891 78.9995 71.3968 78.2093 72.8033 76.8028C74.2098 75.3963 75 73.4886 75 71.4995V66.9995C75 66.3365 75.2634 65.7006 75.7322 65.2317C76.2011 64.7629 76.837 64.4995 77.5 64.4995C78.163 64.4995 78.7989 64.7629 79.2678 65.2317C79.7366 65.7006 80 66.3365 80 66.9995V71.4995C80 74.8147 78.683 77.9941 76.3388 80.3383C73.9946 82.6825 70.8152 83.9995 67.5 83.9995H24.5C21.1848 83.9995 18.0054 82.6825 15.6612 80.3383C13.317 77.9941 12 74.8147 12 71.4995V28.4995Z" fill="#333333"/>
<path d="M64.4977 33.2688C65.0668 33.2772 65.5387 32.824 65.5387 32.2548V25.3909C65.5387 24.5033 66.609 24.0556 67.2409 24.6789L76.8948 34.2007L85.2096 42.4016C85.6321 42.8184 85.6009 43.5093 85.1424 43.8861L76.7332 50.7982L67.1737 58.656C66.5211 59.1924 65.5387 58.7282 65.5387 57.8835V50.8509C65.5387 50.3274 65.1252 49.8907 64.6024 49.8619C51.8289 49.1581 44.6385 53.8708 41.3113 57.0127C40.5777 57.7054 39.0244 57.147 39.0705 56.1391C39.3375 50.2997 40.5209 44.5132 45.1546 39.9449C51.168 34.0116 59.6844 33.1984 64.4977 33.2688Z" fill="#38B6E9"/>
</svg>
