<svg width="28" height="23" viewBox="0 0 28 23" fill="none" xmlns="http://www.w3.org/2000/svg">
<path d="M27.0046 2.9764C26.0155 3.41028 24.9615 3.69788 23.8627 3.83752C24.9931 3.16259 25.8559 2.10198 26.2615 0.823594C25.2076 1.45198 24.0439 1.89584 22.8037 2.14354C21.803 1.07794 20.3766 0.417969 18.8206 0.417969C15.8017 0.417969 13.3713 2.86834 13.3713 5.87229C13.3713 6.30452 13.4079 6.72012 13.4976 7.11577C8.96427 6.89467 4.95291 4.72192 2.25816 1.41208C1.7877 2.22832 1.51174 3.16259 1.51174 4.16834C1.51174 6.05682 2.48425 7.73085 3.93386 8.70003C3.05777 8.68341 2.19831 8.42906 1.47018 8.02842C1.47018 8.04505 1.47018 8.06666 1.47018 8.08827C1.47018 10.7381 3.36033 12.9391 5.83896 13.4462C5.3951 13.5675 4.91135 13.6257 4.4093 13.6257C4.0602 13.6257 3.70777 13.6058 3.37695 13.5326C4.08347 15.6921 6.08832 17.2797 8.4722 17.3312C6.61697 18.7825 4.26135 19.6569 1.71123 19.6569C1.26405 19.6569 0.835149 19.6369 0.40625 19.5821C2.82171 21.1398 5.68436 22.0291 8.77143 22.0291C18.8057 22.0291 24.2916 13.7171 24.2916 6.51232C24.2916 6.27127 24.2833 6.03853 24.2716 5.80746C25.3538 5.03943 26.2632 4.08023 27.0046 2.9764Z" fill="white"/>
</svg>
