<svg width="27" height="27" viewBox="0 0 27 27" fill="none" xmlns="http://www.w3.org/2000/svg">
<path fill-rule="evenodd" clip-rule="evenodd" d="M8.67136 0H18.6457C23.2356 0 26.9577 3.72211 26.9577 8.31199V18.2864C26.9577 22.8762 23.2356 26.5984 18.6457 26.5984H8.67136C4.08148 26.5984 0.359375 22.8762 0.359375 18.2864V8.31199C0.359375 3.72211 4.08148 0 8.67136 0ZM18.6443 24.1048C21.8528 24.1048 24.4627 21.4949 24.4627 18.2864V8.31204C24.4627 5.10362 21.8528 2.49365 18.6443 2.49365H8.66995C5.46153 2.49365 2.85156 5.10362 2.85156 8.31204V18.2864C2.85156 21.4949 5.46153 24.1048 8.66995 24.1048H18.6443Z" fill="white"/>
<path fill-rule="evenodd" clip-rule="evenodd" d="M7.01172 13.2991C7.01172 9.62689 9.98907 6.64954 13.6613 6.64954C17.3335 6.64954 20.3109 9.62689 20.3109 13.2991C20.3109 16.9714 17.3335 19.9487 13.6613 19.9487C9.98907 19.9487 7.01172 16.9714 7.01172 13.2991ZM9.50391 13.2992C9.50391 15.59 11.3691 17.4552 13.6599 17.4552C15.9507 17.4552 17.8159 15.59 17.8159 13.2992C17.8159 11.0067 15.9507 9.14319 13.6599 9.14319C11.3691 9.14319 9.50391 11.0067 9.50391 13.2992Z" fill="white"/>
<circle cx="20.8079" cy="6.15095" r="0.886058" fill="white"/>
</svg>
