<svg width="176" height="60" viewBox="0 0 176 60" fill="none" xmlns="http://www.w3.org/2000/svg">
<g clip-path="url(#clip0_1356_2375)">
<path d="M161.984 0.361275H14.0235C13.4841 0.361275 12.9513 0.361275 12.4133 0.364208C11.9631 0.367141 11.5164 0.375663 11.0618 0.382835C10.0742 0.394424 9.08887 0.481067 8.11446 0.642009C7.14143 0.806456 6.19887 1.11648 5.31868 1.56161C4.43956 2.0105 3.63629 2.59379 2.93799 3.29031C2.23604 3.98488 1.6509 4.7877 1.20509 5.66791C0.758042 6.54637 0.44806 7.48772 0.285847 8.45944C0.122091 9.42995 0.0339727 10.4116 0.0222824 11.3957C0.0086335 11.8454 0.00719213 12.2966 0 12.7463V46.6472C0.00719213 47.1026 0.0086335 47.5438 0.0222824 47.9993C0.0339763 48.9834 0.122095 49.965 0.285847 50.9355C0.447612 51.9078 0.757613 52.8496 1.20509 53.7284C1.6507 54.6058 2.23592 55.4054 2.93799 56.0961C3.63364 56.7957 4.43743 57.3794 5.31868 57.8248C6.19887 58.2711 7.14132 58.583 8.11446 58.75C9.08903 58.9097 10.0742 58.9963 11.0618 59.0093C11.5164 59.0193 11.9631 59.025 12.4133 59.025C12.9512 59.0279 13.4841 59.0279 14.0235 59.0279H161.984C162.513 59.0279 163.05 59.0279 163.579 59.025C164.027 59.025 164.487 59.0193 164.935 59.0093C165.92 58.997 166.904 58.9103 167.876 58.75C168.853 58.5818 169.798 58.2701 170.683 57.8248C171.563 57.3791 172.366 56.7954 173.061 56.0961C173.762 55.4027 174.348 54.6037 174.799 53.7284C175.243 52.849 175.55 51.9072 175.71 50.9355C175.874 49.9649 175.965 48.9834 175.983 47.9993C175.988 47.5438 175.989 47.1026 175.989 46.6472C176 46.1144 176 45.5845 176 45.043V14.3476C176 13.8105 176 13.2777 175.989 12.7463C175.989 12.2966 175.988 11.8454 175.983 11.3957C175.965 10.4115 175.874 9.43002 175.71 8.45939C175.55 7.48822 175.243 6.54695 174.799 5.66785C173.891 3.90356 172.452 2.46745 170.683 1.56148C169.798 1.11744 168.852 0.807494 167.876 0.641877C166.904 0.480225 165.92 0.393553 164.935 0.382629C164.487 0.375472 164.027 0.366877 163.579 0.364017C163.05 0.361084 162.513 0.361084 161.984 0.361084V0.361275Z" fill="#A6A6A6"/>
<path d="M12.4205 57.7445C11.9724 57.7445 11.5351 57.7388 11.0905 57.7288C10.1695 57.7169 9.25058 57.6369 8.34139 57.4896C7.49362 57.344 6.67235 57.0732 5.90468 56.686C5.14406 56.3021 4.4503 55.7987 3.85 55.195C3.24101 54.5985 2.73399 53.9066 2.34905 53.1468C1.95986 52.3821 1.69053 51.5624 1.55041 50.7163C1.39911 49.8071 1.31724 48.8878 1.30553 47.9663C1.2962 47.6569 1.284 46.6271 1.284 46.6271V12.7462C1.284 12.7462 1.297 11.7322 1.3056 11.4342C1.31682 10.5142 1.39821 9.59629 1.54906 8.68854C1.68943 7.8401 1.95898 7.01803 2.34837 6.25079C2.7319 5.49152 3.2361 4.79913 3.84142 4.20046C4.44607 3.59611 5.14204 3.09008 5.90396 2.70084C6.66987 2.31494 7.48958 2.04601 8.33564 1.90306C9.24782 1.75429 10.1699 1.67386 11.0941 1.66244L12.4212 1.64453H163.572L164.915 1.66316C165.83 1.67401 166.744 1.75372 167.648 1.90162C168.502 2.04636 169.331 2.31717 170.105 2.70514C171.632 3.48958 172.874 4.73064 173.657 6.25437C174.04 7.01631 174.306 7.83167 174.444 8.67278C174.597 9.58799 174.683 10.5131 174.7 11.4407C174.704 11.8561 174.704 12.3022 174.704 12.7462C174.716 13.2962 174.716 13.8197 174.716 14.3475V45.0429C174.716 45.5757 174.716 46.0957 174.704 46.6199C174.704 47.0968 174.704 47.5337 174.699 47.9834C174.681 48.8945 174.597 49.8031 174.447 50.7019C174.31 51.5541 174.042 52.3802 173.653 53.1512C173.265 53.9028 172.761 54.5887 172.159 55.1836C171.558 55.7905 170.863 56.2969 170.101 56.6833C169.329 57.0734 168.502 57.3452 167.648 57.4896C166.739 57.6377 165.82 57.7177 164.899 57.7288C164.468 57.7388 164.017 57.7445 163.579 57.7445L161.984 57.7475L12.4205 57.7445Z" fill="black"/>
<path d="M36.4297 30.1351C36.4455 28.9109 36.7716 27.7106 37.3776 26.6459C37.9836 25.5812 38.8498 24.6866 39.8957 24.0454C39.2313 23.0992 38.3548 22.3204 37.3358 21.7711C36.3168 21.2218 35.1833 20.9169 34.0255 20.8808C31.5557 20.6223 29.1614 22.3545 27.9028 22.3545C26.6199 22.3545 24.6821 20.9065 22.5955 20.9493C21.2458 20.9928 19.9304 21.3841 18.7775 22.0853C17.6246 22.7864 16.6734 23.7735 16.0168 24.9501C13.1723 29.8612 15.294 37.0787 18.0188 41.0484C19.3821 42.9922 20.9754 45.1636 23.0601 45.0866C25.1002 45.0022 25.8621 43.7893 28.3246 43.7893C30.7643 43.7893 31.4792 45.0866 33.6062 45.0376C35.7953 45.0022 37.1745 43.0851 38.49 41.1229C39.4695 39.7378 40.2232 38.207 40.7233 36.5872C39.4515 36.0508 38.3661 35.1529 37.6026 34.0056C36.8391 32.8582 36.4312 31.5121 36.4297 30.1351Z" fill="white"/>
<path d="M32.412 18.2702C33.6056 16.8414 34.1936 15.0048 34.0513 13.1506C32.2277 13.3416 30.5433 14.2107 29.3336 15.5847C28.7421 16.256 28.2891 17.0369 28.0005 17.8828C27.7119 18.7287 27.5933 19.6231 27.6514 20.5148C28.5635 20.5241 29.4659 20.327 30.2905 19.9382C31.1151 19.5494 31.8405 18.9791 32.412 18.2702Z" fill="white"/>
<path d="M62.2175 40.1663H55.2557L53.5838 45.089H50.6351L57.2292 26.876H60.2928L66.8869 45.089H63.8879L62.2175 40.1663ZM55.9767 37.8946H61.4951L58.7747 29.9053H58.6986L55.9767 37.8946Z" fill="white"/>
<path d="M81.128 38.4502C81.128 42.5766 78.9132 45.2278 75.5709 45.2278C74.7242 45.272 73.8822 45.0775 73.1412 44.6666C72.4003 44.2557 71.7903 43.6451 71.3812 42.9046H71.3179V49.4817H68.5846V31.8101H71.2304V34.0187H71.2806C71.7086 33.2817 72.3288 32.6743 73.0754 32.2609C73.8221 31.8475 74.6671 31.6437 75.5206 31.6711C78.9002 31.6712 81.128 34.3352 81.128 38.4502ZM78.3186 38.4502C78.3186 35.7618 76.9253 33.9943 74.7996 33.9943C72.7112 33.9943 71.3065 35.799 71.3065 38.4502C71.3065 41.1257 72.7112 42.9175 74.7996 42.9175C76.9253 42.9175 78.3186 41.163 78.3186 38.4502Z" fill="white"/>
<path d="M95.7841 38.4502C95.7841 42.5766 93.5693 45.2278 90.227 45.2278C89.3804 45.2719 88.5383 45.0775 87.7974 44.6666C87.0564 44.2557 86.4464 43.6451 86.0373 42.9046H85.9741V49.4817H83.2408V31.8101H85.8864V34.0187H85.9367C86.3646 33.2817 86.9849 32.6742 87.7315 32.2609C88.4781 31.8475 89.3232 31.6437 90.1767 31.6711C93.5564 31.6711 95.7841 34.3352 95.7841 38.4502ZM92.9747 38.4502C92.9747 35.7618 91.5814 33.9943 89.4557 33.9943C87.3673 33.9943 85.9626 35.799 85.9626 38.4502C85.9626 41.1257 87.3673 42.9175 89.4557 42.9175C91.5815 42.9175 92.9747 41.1629 92.9747 38.4502H92.9747Z" fill="white"/>
<path d="M105.471 40.0142C105.673 41.8203 107.433 43.0062 109.837 43.0062C112.141 43.0062 113.798 41.8202 113.798 40.1917C113.798 38.778 112.799 37.9316 110.432 37.3515L108.065 36.7828C104.711 35.975 103.154 34.411 103.154 31.8729C103.154 28.7305 105.9 26.572 109.8 26.572C113.659 26.572 116.305 28.7305 116.394 31.8729H113.635C113.469 30.0554 111.963 28.9582 109.761 28.9582C107.559 28.9582 106.052 30.0683 106.052 31.6839C106.052 32.9715 107.015 33.7292 109.369 34.3092L111.381 34.8019C115.128 35.6857 116.685 37.1867 116.685 39.8508C116.685 43.2582 113.963 45.3923 109.634 45.3923C105.584 45.3923 102.849 43.3083 102.673 40.014L105.471 40.0142Z" fill="white"/>
<path d="M122.584 28.6675V31.8099H125.116V33.9684H122.584V41.2888C122.584 42.4261 123.091 42.956 124.204 42.956C124.505 42.9508 124.805 42.9297 125.104 42.893V45.0385C124.603 45.1318 124.094 45.174 123.585 45.1646C120.889 45.1646 119.838 44.1548 119.838 41.5795V33.9684H117.902V31.8099H119.838V28.6675H122.584Z" fill="white"/>
<path d="M126.583 38.4501C126.583 34.2721 129.051 31.6467 132.899 31.6467C136.759 31.6467 139.215 34.2721 139.215 38.4501C139.215 42.6396 136.772 45.2535 132.899 45.2535C129.026 45.2535 126.583 42.6396 126.583 38.4501ZM136.43 38.4501C136.43 35.5841 135.113 33.8926 132.898 33.8926C130.684 33.8926 129.368 35.597 129.368 38.4501C129.368 41.3276 130.684 43.0062 132.898 43.0062C135.113 43.0062 136.43 41.3276 136.43 38.4501H136.43Z" fill="white"/>
<path d="M141.469 31.81H144.076V34.0701H144.139C144.315 33.3642 144.73 32.7404 145.313 32.3035C145.897 31.8666 146.613 31.6433 147.342 31.671C147.657 31.6699 147.971 31.704 148.278 31.7727V34.3222C147.881 34.201 147.466 34.1454 147.05 34.1575C146.653 34.1414 146.257 34.2112 145.89 34.3621C145.523 34.513 145.192 34.7414 144.922 35.0317C144.651 35.3219 144.447 35.6671 144.322 36.0436C144.198 36.42 144.157 36.8188 144.202 37.2125V45.0887H141.469L141.469 31.81Z" fill="white"/>
<path d="M160.881 41.1887C160.513 43.5992 158.159 45.2535 155.147 45.2535C151.273 45.2535 148.869 42.6653 148.869 38.5131C148.869 34.348 151.286 31.6467 155.032 31.6467C158.716 31.6467 161.033 34.1704 161.033 38.1966V39.1305H151.628V39.2952C151.585 39.7839 151.646 40.2762 151.808 40.7394C151.97 41.2026 152.229 41.6262 152.568 41.9819C152.907 42.3377 153.317 42.6174 153.773 42.8027C154.229 42.9879 154.718 43.0744 155.21 43.0564C155.856 43.1167 156.504 42.9675 157.058 42.631C157.612 42.2945 158.043 41.7886 158.285 41.1886L160.881 41.1887ZM151.641 37.2255H158.298C158.323 36.7861 158.256 36.3464 158.102 35.9339C157.948 35.5215 157.71 35.1452 157.404 34.8288C157.097 34.5123 156.728 34.2625 156.32 34.095C155.912 33.9275 155.473 33.8459 155.032 33.8553C154.587 33.8527 154.146 33.938 153.734 34.1062C153.322 34.2745 152.948 34.5225 152.632 34.8358C152.317 35.1492 152.067 35.5216 151.897 35.9318C151.727 36.342 151.64 36.7817 151.641 37.2255V37.2255Z" fill="white"/>
<path d="M55.6341 13.1667C56.2072 13.1257 56.7822 13.212 57.3177 13.4194C57.8533 13.6269 58.336 13.9502 58.731 14.3662C59.126 14.7822 59.4235 15.2804 59.6021 15.825C59.7807 16.3695 59.8358 16.9467 59.7635 17.5151C59.7635 20.3109 58.2482 21.918 55.6341 21.918H52.4642V13.1667H55.6341ZM53.8273 20.6804H55.4819C55.8914 20.7048 56.3011 20.6379 56.6814 20.4844C57.0616 20.331 57.4028 20.0949 57.68 19.7934C57.9573 19.4919 58.1636 19.1326 58.284 18.7416C58.4044 18.3505 58.4358 17.9376 58.376 17.5329C58.4315 17.1298 58.3969 16.7195 58.2746 16.3313C58.1524 15.9432 57.9455 15.5868 57.6689 15.2877C57.3923 14.9886 57.0528 14.7542 56.6747 14.6013C56.2966 14.4484 55.8893 14.3808 55.4819 14.4034H53.8273V20.6804Z" fill="white"/>
<path d="M61.3033 18.6127C61.2616 18.1787 61.3114 17.7408 61.4494 17.3271C61.5874 16.9134 61.8106 16.533 62.1047 16.2104C62.3988 15.8878 62.7572 15.63 63.1571 15.4536C63.5569 15.2772 63.9893 15.186 64.4265 15.186C64.8637 15.186 65.2961 15.2772 65.696 15.4536C66.0958 15.63 66.4543 15.8878 66.7483 16.2104C67.0424 16.533 67.2656 16.9134 67.4036 17.3271C67.5416 17.7408 67.5914 18.1787 67.5498 18.6127C67.5922 19.0472 67.543 19.4857 67.4054 19.9001C67.2677 20.3144 67.0446 20.6955 66.7505 21.0188C66.4564 21.342 66.0976 21.6004 65.6974 21.7772C65.2972 21.9539 64.8643 22.0453 64.4265 22.0453C63.9888 22.0453 63.5559 21.9539 63.1556 21.7772C62.7554 21.6004 62.3967 21.342 62.1025 21.0188C61.8084 20.6955 61.5853 20.3144 61.4477 19.9001C61.31 19.4857 61.2608 19.0472 61.3033 18.6127ZM66.2054 18.6127C66.2054 17.1812 65.5605 16.344 64.4287 16.344C63.2926 16.344 62.6534 17.1812 62.6534 18.6127C62.6534 20.0558 63.2926 20.8865 64.4287 20.8865C65.5605 20.8865 66.2054 20.05 66.2054 18.6127H66.2054Z" fill="white"/>
<path d="M75.8531 21.9178H74.4973L73.1285 17.0537H73.025L71.662 21.9178H70.319L68.4935 15.3135H69.8192L71.0056 20.3529H71.1033L72.4649 15.3135H73.7188L75.0804 20.3529H75.1838L76.3645 15.3135H77.6715L75.8531 21.9178Z" fill="white"/>
<path d="M79.2069 15.3134H80.4651V16.3626H80.5628C80.7285 15.9858 81.0079 15.6699 81.3622 15.459C81.7165 15.2481 82.1279 15.1526 82.5392 15.1859C82.8614 15.1618 83.185 15.2102 83.4859 15.3277C83.7868 15.4452 84.0574 15.6287 84.2775 15.8646C84.4977 16.1005 84.6618 16.3828 84.7577 16.6905C84.8536 16.9982 84.8788 17.3235 84.8315 17.6423V21.9176H83.5245V17.9696C83.5245 16.9083 83.062 16.3805 82.0953 16.3805C81.8765 16.3703 81.6581 16.4075 81.4551 16.4893C81.252 16.5712 81.0691 16.6959 80.9189 16.8549C80.7687 17.0139 80.6548 17.2033 80.5849 17.4103C80.515 17.6173 80.4908 17.8369 80.5139 18.0541V21.9177H79.2069L79.2069 15.3134Z" fill="white"/>
<path d="M86.9142 12.7354H88.2212V21.9178H86.9142V12.7354Z" fill="white"/>
<path d="M90.0381 18.6128C89.9965 18.1788 90.0464 17.7409 90.1844 17.3272C90.3225 16.9134 90.5457 16.5331 90.8398 16.2104C91.1339 15.8878 91.4924 15.63 91.8922 15.4536C92.2921 15.2772 92.7245 15.186 93.1618 15.186C93.599 15.186 94.0314 15.2772 94.4313 15.4536C94.8312 15.63 95.1896 15.8878 95.4837 16.2104C95.7778 16.5331 96.0011 16.9134 96.1391 17.3272C96.2772 17.7409 96.327 18.1788 96.2854 18.6128C96.3278 19.0473 96.2785 19.4858 96.1408 19.9002C96.0031 20.3146 95.78 20.6956 95.4858 21.0189C95.1917 21.3422 94.8329 21.6005 94.4327 21.7773C94.0324 21.954 93.5995 22.0454 93.1618 22.0454C92.724 22.0454 92.2911 21.954 91.8909 21.7773C91.4906 21.6005 91.1319 21.3422 90.8377 21.0189C90.5435 20.6956 90.3204 20.3146 90.1827 19.9002C90.045 19.4858 89.9958 19.0473 90.0381 18.6128ZM94.9403 18.6128C94.9403 17.1813 94.2954 16.3441 93.1636 16.3441C92.0274 16.3441 91.3883 17.1813 91.3883 18.6129C91.3883 20.0559 92.0275 20.8866 93.1636 20.8866C94.2954 20.8866 94.9403 20.0501 94.9403 18.6128H94.9403Z" fill="white"/>
<path d="M97.6614 20.0501C97.6614 18.8613 98.549 18.1759 100.125 18.0785L101.919 17.9754V17.4054C101.919 16.7078 101.456 16.314 100.563 16.314C99.8331 16.314 99.3275 16.5811 99.1824 17.048H97.917C98.0506 15.9136 99.1207 15.186 100.623 15.186C102.283 15.186 103.22 16.0103 103.22 17.4054V21.9178H101.962V20.9897H101.858C101.648 21.3226 101.354 21.594 101.004 21.7762C100.655 21.9584 100.263 22.0448 99.869 22.0266C99.591 22.0554 99.31 22.0259 99.0441 21.9398C98.7782 21.8537 98.5334 21.713 98.3254 21.5268C98.1174 21.3406 97.9509 21.1129 97.8365 20.8586C97.7221 20.6043 97.6625 20.3288 97.6614 20.0501ZM101.919 19.4858V18.9336L100.301 19.0367C99.3893 19.0976 98.9756 19.407 98.9756 19.9892C98.9756 20.5836 99.4927 20.9295 100.204 20.9295C100.412 20.9505 100.622 20.9296 100.822 20.8678C101.023 20.8061 101.208 20.7049 101.368 20.5702C101.528 20.4355 101.659 20.27 101.754 20.0837C101.848 19.8975 101.904 19.6941 101.919 19.4858Z" fill="white"/>
<path d="M104.938 18.6128C104.938 16.5259 106.014 15.2039 107.687 15.2039C108.101 15.1849 108.512 15.2838 108.871 15.4889C109.231 15.6941 109.524 15.9971 109.718 16.3626H109.815V12.7354H111.123V21.9178H109.87V20.8743H109.767C109.558 21.2373 109.254 21.5366 108.888 21.7397C108.521 21.9428 108.106 22.042 107.687 22.0266C106.002 22.0267 104.938 20.7046 104.938 18.6128ZM106.288 18.6128C106.288 20.0136 106.95 20.8565 108.057 20.8565C109.159 20.8565 109.84 20.0014 109.84 18.6185C109.84 17.2421 109.152 16.3748 108.057 16.3748C106.957 16.3748 106.288 17.2235 106.288 18.6128H106.288Z" fill="white"/>
<path d="M116.53 18.6127C116.489 18.1787 116.538 17.7408 116.676 17.3271C116.814 16.9134 117.038 16.533 117.332 16.2104C117.626 15.8878 117.984 15.63 118.384 15.4536C118.784 15.2772 119.216 15.186 119.653 15.186C120.091 15.186 120.523 15.2772 120.923 15.4536C121.323 15.63 121.681 15.8878 121.975 16.2104C122.269 16.533 122.493 16.9134 122.631 17.3271C122.769 17.7408 122.818 18.1787 122.777 18.6127C122.819 19.0472 122.77 19.4857 122.632 19.9001C122.495 20.3144 122.272 20.6955 121.977 21.0188C121.683 21.342 121.325 21.6004 120.924 21.7772C120.524 21.9539 120.091 22.0453 119.653 22.0453C119.216 22.0453 118.783 21.9539 118.383 21.7772C117.982 21.6004 117.624 21.342 117.33 21.0188C117.035 20.6955 116.812 20.3144 116.675 19.9001C116.537 19.4857 116.488 19.0472 116.53 18.6127ZM121.432 18.6127C121.432 17.1812 120.787 16.344 119.656 16.344C118.52 16.344 117.88 17.1812 117.88 18.6127C117.88 20.0558 118.52 20.8865 119.656 20.8865C120.787 20.8865 121.432 20.05 121.432 18.6127Z" fill="white"/>
<path d="M124.53 15.3134H125.789V16.3626H125.886C126.052 15.9858 126.331 15.6699 126.686 15.459C127.04 15.2481 127.451 15.1526 127.863 15.1859C128.185 15.1618 128.509 15.2102 128.809 15.3277C129.11 15.4452 129.381 15.6287 129.601 15.8646C129.821 16.1005 129.985 16.3828 130.081 16.6905C130.177 16.9982 130.202 17.3235 130.155 17.6423V21.9176H128.848V17.9696C128.848 16.9083 128.386 16.3805 127.419 16.3805C127.2 16.3703 126.982 16.4075 126.779 16.4893C126.576 16.5712 126.393 16.6959 126.242 16.8549C126.092 17.0139 125.978 17.2033 125.908 17.4103C125.839 17.6173 125.814 17.8369 125.837 18.0541V21.9177H124.53V15.3134Z" fill="white"/>
<path d="M137.541 13.6692V15.3435H138.975V16.4414H137.541V19.8374C137.541 20.5292 137.826 20.8321 138.477 20.8321C138.644 20.8315 138.81 20.8215 138.975 20.802V21.8877C138.741 21.9295 138.503 21.9518 138.264 21.9543C136.811 21.9543 136.232 21.4444 136.232 20.1711V16.4413H135.181V15.3435H136.232V13.6692H137.541Z" fill="white"/>
<path d="M140.761 12.7354H142.056V16.3748H142.16C142.334 15.9945 142.621 15.6768 142.982 15.4651C143.343 15.2534 143.761 15.1579 144.179 15.1917C144.5 15.1743 144.82 15.2277 145.118 15.348C145.415 15.4684 145.682 15.6527 145.9 15.8879C146.118 16.123 146.281 16.4032 146.378 16.7085C146.475 17.0138 146.503 17.3365 146.46 17.6538V21.9178H145.152V17.9754C145.152 16.9205 144.659 16.3863 143.735 16.3863C143.511 16.3679 143.285 16.3987 143.073 16.4765C142.862 16.5543 142.67 16.6772 142.511 16.8367C142.352 16.9962 142.23 17.1884 142.154 17.3998C142.077 17.6112 142.048 17.8367 142.068 18.0606V21.9178H140.761L140.761 12.7354Z" fill="white"/>
<path d="M154.081 20.1345C153.904 20.7381 153.519 21.2602 152.994 21.6094C152.47 21.9587 151.839 22.113 151.211 22.0451C150.775 22.0566 150.341 21.9733 149.941 21.8009C149.54 21.6285 149.182 21.3712 148.89 21.0469C148.599 20.7226 148.383 20.339 148.255 19.9227C148.128 19.5064 148.092 19.0675 148.152 18.6363C148.094 18.2038 148.13 17.7639 148.257 17.3464C148.384 16.9289 148.6 16.5435 148.889 16.2163C149.179 15.8891 149.536 15.6278 149.935 15.45C150.335 15.2723 150.768 15.1822 151.206 15.1859C153.048 15.1859 154.16 16.4414 154.16 18.5152V18.97H149.484V19.0431C149.463 19.2854 149.494 19.5294 149.573 19.7593C149.653 19.9892 149.78 20.2 149.946 20.3781C150.112 20.5562 150.313 20.6978 150.538 20.7937C150.762 20.8896 151.003 20.9378 151.247 20.9351C151.56 20.9725 151.877 20.9164 152.157 20.7738C152.438 20.6312 152.67 20.4087 152.823 20.1344L154.081 20.1345ZM149.484 18.0061H152.829C152.845 17.7844 152.815 17.5618 152.74 17.3525C152.665 17.1431 152.547 16.9518 152.393 16.7907C152.24 16.6295 152.054 16.5022 151.849 16.4169C151.643 16.3316 151.421 16.2901 151.198 16.2952C150.972 16.2924 150.748 16.3347 150.539 16.4197C150.329 16.5047 150.139 16.6306 149.979 16.7901C149.819 16.9495 149.693 17.1392 149.608 17.3481C149.523 17.5569 149.481 17.7807 149.484 18.0061H149.484Z" fill="white"/>
</g>
<defs>
<clipPath id="clip0_1356_2375">
<rect width="176" height="58.6667" fill="white" transform="translate(0 0.361328)"/>
</clipPath>
</defs>
</svg>
