<?xml version="1.0" encoding="utf-8"?>
<!-- Generator: Adobe Illustrator 25.2.0, SVG Export Plug-In . SVG Version: 6.00 Build 0)  -->
<svg version="1.1" id="Layer_1" xmlns="http://www.w3.org/2000/svg" xmlns:xlink="http://www.w3.org/1999/xlink" x="0px" y="0px"
	 viewBox="0 0 208.3 234.4" style="enable-background:new 0 0 208.3 234.4;" xml:space="preserve">
<style type="text/css">
	.st0{fill:#2F77AD;}
	.st1{opacity:0.8;fill:#38B6E9;}
	.st2{fill:#30B9EB;}
	.st3{fill:#FFFFFF;}
</style>
<g>
	<path class="st0" d="M27.1,8.7H9.3v98.4h45.5c7.5,0,13.6-6.1,13.6-13.6V50C68.4,27.2,49.9,8.7,27.1,8.7z"/>
	<path class="st0" d="M59.2,223.7h9.2v-93.3c0-7.5-6.1-13.6-13.6-13.6H9.3l0,56.9C9.3,201.3,31.6,223.7,59.2,223.7z"/>
	<path class="st1" d="M150,60.6H42.8c-18.5,0-33.6-15-33.6-33.6V8.7H200v1.8C200,38.2,177.6,60.6,150,60.6z"/>
	<path class="st2" d="M154.6,121.8L154.6,121.8c0,17.5-14.2,31.7-31.7,31.7h0c-17.5,0-31.7-14.2-31.7-31.7v0
		c0-17.5,14.2-31.7,31.7-31.7h0C140.4,90.1,154.6,104.3,154.6,121.8z"/>
	<path class="st0" d="M140.9,122.5L140.9,122.5c0,10-8.1,18-18,18h0c-10,0-18-8.1-18-18v0c0-10,8.1-18,18-18h0
		C132.8,104.5,140.9,112.6,140.9,122.5z"/>
	<path class="st3" d="M133.4,104.9L133.4,104.9c-2.6,0-4.7,2.1-4.7,4.7v0c0,2.6,2.1,4.7,4.7,4.7h0c2.6,0,4.7-2.1,4.7-4.7v0
		C138.1,107,136,104.9,133.4,104.9z"/>
</g>
</svg>
