<svg width="22" height="22" viewBox="0 0 22 22" fill="none" xmlns="http://www.w3.org/2000/svg">
<path d="M21.4503 16.3503C21.2056 16.0896 20.3417 15.319 18.7536 14.2995C17.1537 13.271 15.9739 12.6298 15.6355 12.4803C15.6056 12.467 15.5728 12.4622 15.5404 12.4662C15.508 12.4703 15.4774 12.4831 15.4517 12.5032C14.9066 12.9284 13.9887 13.7093 13.9395 13.7515C13.6217 14.0238 13.6217 14.0238 13.3616 13.939C12.9041 13.789 11.4828 13.0343 10.2444 11.7931C9.00593 10.5518 8.21234 9.09541 8.06234 8.63838C7.97656 8.37775 7.97656 8.37775 8.24984 8.05994C8.29203 8.01072 9.07343 7.09291 9.49859 6.54822C9.51875 6.52257 9.53155 6.49191 9.53559 6.45954C9.53964 6.42716 9.53479 6.3943 9.52156 6.36447C9.37203 6.02557 8.73078 4.84619 7.70234 3.24635C6.6814 1.65869 5.91171 0.794785 5.65109 0.550098C5.62717 0.527529 5.59761 0.511829 5.56552 0.504652C5.53343 0.497474 5.5 0.499086 5.46875 0.509317C4.55772 0.822388 3.67872 1.22186 2.84375 1.70229C2.03769 2.17086 1.27458 2.70967 0.563276 3.31244C0.538447 3.33355 0.519831 3.36102 0.509426 3.3919C0.499021 3.42279 0.49722 3.45592 0.504214 3.48775C0.602183 3.94432 1.07046 5.85025 2.52359 8.49025C4.00625 11.1846 5.03375 12.5651 7.21109 14.7349C9.38843 16.9048 10.8125 17.9942 13.5097 19.4768C16.1497 20.9299 18.0566 21.3987 18.5122 21.4957C18.5441 21.5027 18.5773 21.5008 18.6082 21.4904C18.6392 21.48 18.6667 21.4614 18.688 21.4367C19.2906 20.7254 19.8293 19.9623 20.2977 19.1562C20.778 18.3212 21.1775 17.4422 21.4906 16.5312C21.5006 16.5002 21.5022 16.467 21.4951 16.4352C21.488 16.4034 21.4725 16.3741 21.4503 16.3503Z" fill="white"/>
</svg>
