<svg width="176" height="53" viewBox="0 0 176 53" fill="none" xmlns="http://www.w3.org/2000/svg">
<g clip-path="url(#clip0_1356_2374)">
<path d="M169.024 0H6.50091C2.91055 0 0 2.91055 0 6.50091V45.5063C0 49.0967 2.91055 52.0072 6.50091 52.0072H169.024C172.614 52.0072 175.524 49.0967 175.524 45.5063V6.50091C175.524 2.91055 172.614 0 169.024 0Z" fill="black"/>
<path d="M169.024 1.04015C170.472 1.04015 171.861 1.61547 172.885 2.63956C173.909 3.66366 174.484 5.05262 174.484 6.50091V45.5063C174.484 46.9546 173.909 48.3436 172.885 49.3677C171.861 50.3918 170.472 50.9671 169.024 50.9671H6.50091C5.05262 50.9671 3.66366 50.3918 2.63956 49.3677C1.61547 48.3436 1.04015 46.9546 1.04015 45.5063V6.50091C1.04015 5.05262 1.61547 3.66366 2.63956 2.63956C3.66366 1.61547 5.05262 1.04015 6.50091 1.04015H169.024ZM169.024 0H6.50091C4.77676 0 3.12323 0.684915 1.90407 1.90407C0.684915 3.12323 0 4.77676 0 6.50091V45.5063C0 47.2305 0.684915 48.884 1.90407 50.1032C3.12323 51.3223 4.77676 52.0072 6.50091 52.0072H169.024C170.748 52.0072 172.401 51.3223 173.62 50.1032C174.84 48.884 175.524 47.2305 175.524 45.5063V6.50091C175.524 4.77676 174.84 3.12323 173.62 1.90407C172.401 0.684915 170.748 0 169.024 0Z" fill="#A6A6A6"/>
<path d="M61.6546 13.3139C61.6759 13.7907 61.6005 14.2669 61.4329 14.7138C61.2653 15.1607 61.009 15.569 60.6794 15.9142C60.3101 16.2956 59.8643 16.5946 59.3714 16.7918C58.8785 16.9889 58.3495 17.0798 57.819 17.0584C57.2855 17.0703 56.7552 16.9726 56.261 16.7713C55.7667 16.57 55.319 16.2695 54.9456 15.8882C54.188 15.1133 53.7638 14.0726 53.7638 12.9888C53.7638 11.9051 54.188 10.8644 54.9456 10.0894C55.5249 9.52342 56.2584 9.14124 57.0542 8.99087C57.85 8.84051 58.6724 8.92868 59.4182 9.24429C59.8871 9.43702 60.3053 9.73509 60.6404 10.1154L59.9513 10.8045C59.6931 10.4935 59.366 10.2469 58.9958 10.0844C58.6257 9.92191 58.2227 9.84794 57.819 9.86838C57.3094 9.87191 56.8084 10.0002 56.3598 10.2421C55.9111 10.4839 55.5286 10.832 55.2456 11.2558C54.9625 11.6797 54.7876 12.1664 54.7361 12.6734C54.6846 13.1805 54.7581 13.6924 54.9502 14.1645C55.1422 14.6366 55.4469 15.0545 55.8378 15.3816C56.2286 15.7087 56.6936 15.9351 57.1921 16.041C57.6906 16.147 58.2075 16.1292 58.6976 15.9892C59.1876 15.8492 59.6359 15.5914 60.0033 15.2381C60.4005 14.8027 60.6307 14.2408 60.6534 13.6519H57.819V12.7158H61.6025C61.6322 12.9139 61.6495 13.1136 61.6546 13.3139Z" fill="white" stroke="white" stroke-width="0.245994" stroke-miterlimit="10"/>
<path d="M67.6094 10.0635H64.0989V12.5338H67.2974V13.4699H64.0989V15.9403H67.6094V16.9024H63.0848V9.10132H67.6094V10.0635Z" fill="white" stroke="white" stroke-width="0.245994" stroke-miterlimit="10"/>
<path d="M71.874 16.9024H70.8729V10.0635H68.6886V9.10132H74.1103V10.0635H71.874V16.9024Z" fill="white" stroke="white" stroke-width="0.245994" stroke-miterlimit="10"/>
<path d="M77.9328 16.9024V9.10132H78.934V16.9024H77.9328Z" fill="white" stroke="white" stroke-width="0.245994" stroke-miterlimit="10"/>
<path d="M83.3806 16.9024H82.3795V10.0635H80.1952V9.10132H85.5519V10.0635H83.3806V16.9024Z" fill="white" stroke="white" stroke-width="0.245994" stroke-miterlimit="10"/>
<path d="M95.7064 15.8882C95.3308 16.264 94.8849 16.5622 94.3941 16.7656C93.9033 16.969 93.3773 17.0737 92.846 17.0737C92.3147 17.0737 91.7886 16.969 91.2978 16.7656C90.807 16.5622 90.3611 16.264 89.9856 15.8882C89.2506 15.1068 88.8413 14.0745 88.8413 13.0018C88.8413 11.929 89.2506 10.8967 89.9856 10.1154C90.353 9.72896 90.7975 9.42398 91.2902 9.22017C91.7829 9.01636 92.3129 8.91826 92.846 8.93221C93.3783 8.92379 93.9066 9.02442 94.3986 9.2279C94.8905 9.43138 95.3356 9.73341 95.7064 10.1154C96.0802 10.4957 96.3741 10.947 96.5706 11.4428C96.7671 11.9385 96.8623 12.4686 96.8505 13.0018C96.8676 13.5356 96.7748 14.0672 96.578 14.5637C96.3812 15.0602 96.0845 15.511 95.7064 15.8882ZM90.7267 15.2381C91.0036 15.5188 91.3336 15.7416 91.6974 15.8937C92.0612 16.0459 92.4516 16.1242 92.846 16.1242C93.2403 16.1242 93.6307 16.0459 93.9945 15.8937C94.3583 15.7416 94.6883 15.5188 94.9653 15.2381C95.5263 14.6285 95.8377 13.8303 95.8377 13.0018C95.8377 12.1733 95.5263 11.3751 94.9653 10.7655C94.6883 10.4848 94.3583 10.2619 93.9945 10.1098C93.6307 9.95769 93.2403 9.87937 92.846 9.87937C92.4516 9.87937 92.0612 9.95769 91.6974 10.1098C91.3336 10.2619 91.0036 10.4848 90.7267 10.7655C90.1657 11.3751 89.8543 12.1733 89.8543 13.0018C89.8543 13.8303 90.1657 14.6285 90.7267 15.2381Z" fill="white" stroke="white" stroke-width="0.245994" stroke-miterlimit="10"/>
<path d="M98.2677 16.9024V9.10132H99.4769L103.273 15.1732V13.665V9.10132H104.275V16.9024H103.234L99.2688 10.5445V12.0397V16.9024H98.2677Z" fill="white" stroke="white" stroke-width="0.245994" stroke-miterlimit="10"/>
<path d="M88.5943 28.279C87.4989 28.2815 86.4288 28.6089 85.5194 29.2197C84.61 29.8304 83.9021 30.6971 83.4852 31.7102C83.0684 32.7232 82.9613 33.8371 83.1776 34.911C83.3938 35.985 83.9236 36.9706 84.7001 37.7434C85.4765 38.5162 86.4646 39.0414 87.5396 39.2526C88.6145 39.4638 89.7279 39.3515 90.739 38.9299C91.75 38.5083 92.6134 37.7964 93.2199 36.8841C93.8264 35.9718 94.1487 34.9002 94.1461 33.8047C94.1567 33.074 94.0202 32.3485 93.7446 31.6716C93.469 30.9947 93.06 30.3801 92.542 29.8646C92.024 29.349 91.4076 28.9429 90.7294 28.6705C90.0512 28.3981 89.3251 28.2649 88.5943 28.279ZM88.5943 37.1592C87.9229 37.2062 87.2529 37.05 86.6713 36.7112C86.0898 36.3723 85.6237 35.8662 85.3335 35.2589C85.0434 34.6516 84.9426 33.971 85.0444 33.3057C85.1462 32.6403 85.4458 32.021 85.9042 31.5282C86.3627 31.0354 86.9588 30.6918 87.615 30.5423C88.2713 30.3927 88.9573 30.4441 89.584 30.6896C90.2107 30.9352 90.7491 31.3635 91.1291 31.9191C91.5091 32.4746 91.7131 33.1317 91.7148 33.8047C91.7357 34.2312 91.6711 34.6576 91.5246 35.0587C91.3781 35.4598 91.1529 35.8275 90.862 36.1401C90.5712 36.4527 90.2207 36.704 89.8313 36.879C89.4418 37.054 89.0212 37.1493 88.5943 37.1592ZM76.4767 28.279C75.3812 28.2815 74.3111 28.6089 73.4017 29.2197C72.4923 29.8304 71.7844 30.6971 71.3675 31.7102C70.9507 32.7232 70.8436 33.8371 71.0599 34.911C71.2761 35.985 71.8059 36.9706 72.5824 37.7434C73.3588 38.5162 74.347 39.0414 75.4219 39.2526C76.4968 39.4638 77.6102 39.3515 78.6213 38.9299C79.6324 38.5083 80.4957 37.7964 81.1022 36.8841C81.7087 35.9718 82.031 34.9002 82.0284 33.8047C82.039 33.074 81.9025 32.3485 81.6269 31.6716C81.3513 30.9947 80.9423 30.3801 80.4243 29.8646C79.9063 29.349 79.2899 28.9429 78.6117 28.6705C77.9335 28.3981 77.2074 28.2649 76.4767 28.279ZM76.4767 37.1592C75.8052 37.2062 75.1352 37.05 74.5536 36.7112C73.9721 36.3723 73.506 35.8662 73.2158 35.2589C72.9257 34.6516 72.825 33.971 72.9267 33.3057C73.0285 32.6403 73.3281 32.021 73.7865 31.5282C74.245 31.0354 74.8411 30.6918 75.4973 30.5423C76.1536 30.3927 76.8396 30.4441 77.4663 30.6896C78.093 30.9352 78.6314 31.3635 79.0114 31.9191C79.3914 32.4746 79.5955 33.1317 79.5971 33.8047C79.618 34.2312 79.5534 34.6576 79.4069 35.0587C79.2605 35.4598 79.0352 35.8275 78.7444 36.1401C78.4535 36.4527 78.1031 36.704 77.7136 36.879C77.3241 37.054 76.9035 37.1493 76.4767 37.1592ZM62.0707 29.9822V32.3225H67.6874C67.5994 33.4248 67.1412 34.465 66.3873 35.2739C65.8238 35.848 65.1462 36.2974 64.3981 36.593C63.6501 36.8886 62.8483 37.024 62.0447 36.9902C60.3895 36.9902 58.8021 36.3327 57.6317 35.1623C56.4613 33.9919 55.8038 32.4045 55.8038 30.7493C55.8038 29.0941 56.4613 27.5067 57.6317 26.3364C58.8021 25.166 60.3895 24.5084 62.0447 24.5084C63.6315 24.4849 65.1636 25.0875 66.3092 26.1857L67.9605 24.5345C67.1855 23.768 66.2654 23.1639 65.2541 22.7576C64.2427 22.3513 63.1604 22.1509 62.0707 22.1681C60.9148 22.1231 59.7617 22.312 58.6806 22.7233C57.5994 23.1346 56.6125 23.7599 55.7788 24.5618C54.9451 25.3636 54.2818 26.3256 53.8288 27.3899C53.3758 28.4542 53.1422 29.5991 53.1422 30.7558C53.1422 31.9126 53.3758 33.0574 53.8288 34.1217C54.2818 35.1861 54.9451 36.148 55.7788 36.9499C56.6125 37.7517 57.5994 38.3771 58.6806 38.7884C59.7617 39.1997 60.9148 39.3885 62.0707 39.3435C63.1829 39.3879 64.2919 39.1966 65.3249 38.782C66.3579 38.3675 67.2915 37.7391 68.0645 36.9382C69.4298 35.4383 70.1573 33.4656 70.0928 31.4384C70.0974 30.9505 70.0583 30.4631 69.9758 29.9822H62.0707ZM120.982 31.8025C120.643 30.8049 120.009 29.9338 119.164 29.3046C118.318 28.6754 117.302 28.3177 116.249 28.279C115.538 28.2776 114.834 28.4221 114.181 28.7035C113.528 28.985 112.939 29.3974 112.452 29.9153C111.964 30.4332 111.588 31.0456 111.347 31.7146C111.106 32.3835 111.004 33.0949 111.048 33.8047C111.037 34.9916 111.41 36.1502 112.112 37.1075C112.814 38.0649 113.806 38.7695 114.942 39.1162C116.077 39.4629 117.294 39.433 118.41 39.0311C119.527 38.6292 120.484 37.8767 121.138 36.8862L119.253 35.586C118.972 36.0544 118.573 36.4412 118.096 36.7081C117.62 36.9749 117.081 37.1125 116.535 37.1072C115.972 37.1305 115.414 36.9827 114.936 36.6834C114.458 36.384 114.082 35.9471 113.857 35.43L121.255 32.3745L120.982 31.8025ZM113.441 33.6487C113.414 33.2449 113.469 32.8398 113.601 32.4573C113.733 32.0747 113.94 31.7224 114.21 31.4209C114.48 31.1194 114.808 30.8748 115.174 30.7015C115.539 30.5281 115.936 30.4294 116.34 30.4113C116.759 30.3857 117.176 30.4843 117.539 30.6948C117.903 30.9053 118.195 31.2182 118.381 31.5944L113.441 33.6487ZM107.434 39.0055H109.865V22.7532H107.434V39.0055ZM103.455 29.5141H103.364C103.001 29.1005 102.553 28.7702 102.05 28.5458C101.548 28.3214 101.002 28.2082 100.452 28.214C99.0311 28.2829 97.6913 28.8958 96.71 29.9258C95.7288 30.9557 95.1815 32.3237 95.1815 33.7462C95.1815 35.1688 95.7288 36.5368 96.71 37.5667C97.6913 38.5967 99.0311 39.2096 100.452 39.2785C101.003 39.2896 101.55 39.1788 102.054 38.954C102.557 38.7292 103.005 38.3961 103.364 37.9783H103.455V38.7714C103.455 40.8907 102.324 42.0219 100.504 42.0219C99.8959 42.0085 99.3056 41.8148 98.8078 41.4652C98.3101 41.1156 97.9275 40.6261 97.7086 40.0586L95.6023 40.9297C95.9917 41.9078 96.6688 42.7446 97.544 43.3297C98.4192 43.9147 99.4514 44.2203 100.504 44.2062C103.351 44.2062 105.705 42.529 105.705 38.4464V28.604H103.455V29.5141ZM100.66 37.1592C99.8081 37.1061 99.0086 36.7303 98.4241 36.1082C97.8396 35.4862 97.5143 34.6648 97.5143 33.8112C97.5143 32.9577 97.8396 32.1363 98.4241 31.5143C99.0086 30.8922 99.8081 30.5164 100.66 30.4633C101.076 30.4812 101.485 30.5828 101.861 30.7618C102.238 30.9409 102.574 31.1938 102.851 31.5056C103.127 31.8174 103.338 32.1816 103.471 32.5765C103.604 32.9715 103.656 33.3892 103.624 33.8047C103.66 34.2217 103.61 34.6415 103.479 35.0388C103.348 35.4361 103.137 35.8026 102.86 36.1162C102.583 36.4298 102.245 36.6839 101.867 36.8631C101.489 37.0424 101.078 37.1431 100.66 37.1592ZM132.371 22.7532H126.547V39.0055H128.978V32.8426H132.371C133.064 32.8924 133.76 32.7989 134.415 32.5679C135.071 32.337 135.671 31.9735 136.18 31.5002C136.688 31.0268 137.094 30.4538 137.371 29.8169C137.648 29.1799 137.792 28.4926 137.792 27.7979C137.792 27.1032 137.648 26.4159 137.371 25.7789C137.094 25.142 136.688 24.569 136.18 24.0957C135.671 23.6223 135.071 23.2589 134.415 23.0279C133.76 22.7969 133.064 22.7034 132.371 22.7532ZM132.371 30.5543H128.978V25.0155H132.423C132.789 25.0155 133.151 25.0875 133.488 25.2273C133.826 25.3671 134.133 25.5721 134.391 25.8305C134.649 26.0888 134.854 26.3956 134.994 26.7331C135.134 27.0707 135.206 27.4325 135.206 27.7979C135.206 28.1633 135.134 28.5251 134.994 28.8627C134.854 29.2003 134.649 29.507 134.391 29.7654C134.133 30.0237 133.826 30.2287 133.488 30.3685C133.151 30.5083 132.789 30.5803 132.423 30.5803L132.371 30.5543ZM147.376 28.227C146.49 28.1724 145.608 28.3785 144.839 28.8199C144.069 29.2612 143.446 29.9185 143.046 30.7103L145.191 31.6074C145.408 31.2166 145.733 30.8969 146.128 30.6869C146.522 30.477 146.969 30.3858 147.415 30.4243C147.723 30.3882 148.036 30.414 148.334 30.5001C148.633 30.5862 148.911 30.7309 149.154 30.9258C149.396 31.1206 149.596 31.3617 149.744 31.635C149.892 31.9083 149.984 32.2083 150.015 32.5176V32.6736C149.233 32.2626 148.363 32.0484 147.48 32.0495C145.165 32.0495 142.799 33.3497 142.799 35.716C142.822 36.219 142.946 36.7122 143.163 37.1664C143.38 37.6206 143.686 38.0266 144.063 38.3601C144.441 38.6936 144.881 38.9479 145.358 39.1079C145.836 39.2679 146.34 39.3304 146.842 39.2915C147.453 39.3253 148.061 39.1961 148.604 38.9174C149.148 38.6387 149.608 38.2203 149.937 37.7053H150.015V39.0055H152.355V32.7516C152.355 29.9042 150.197 28.253 147.428 28.253L147.376 28.227ZM147.076 37.1332C146.283 37.1332 145.178 36.7302 145.178 35.755C145.178 34.4548 146.556 34.0128 147.779 34.0128C148.551 33.9937 149.314 34.1823 149.989 34.5589C149.907 35.2649 149.572 35.9175 149.047 36.3956C148.521 36.8738 147.839 37.145 147.128 37.1592L147.076 37.1332ZM160.884 28.604L158.102 35.651H158.024L155.138 28.604H152.537L156.867 38.4594L154.396 43.9332H156.932L163.589 28.604H160.884ZM139.041 39.0055H141.46V22.7532H139.041V39.0055Z" fill="white"/>
<path d="M13.5739 9.80342C13.1454 10.31 12.9268 10.9612 12.9628 11.6237V40.3837C12.9186 41.0473 13.1382 41.7015 13.5739 42.2039L13.6649 42.3079L29.7742 26.1987V25.8086L13.6649 9.7124L13.5739 9.80342Z" fill="url(#paint0_linear_1356_2374)"/>
<path d="M35.1049 31.5685L29.7741 26.1988V25.8087L35.1049 20.439L35.2219 20.517L41.6058 24.1315C43.426 25.1586 43.426 26.8489 41.6058 27.889L35.2479 31.5035L35.1049 31.5685Z" fill="url(#paint1_linear_1356_2374)"/>
<path d="M35.2609 31.4904L29.7742 26.0037L13.5739 42.2039C13.9413 42.5309 14.4116 42.7191 14.9031 42.7357C15.3947 42.7523 15.8766 42.5964 16.2653 42.2949L35.2609 31.4904Z" fill="url(#paint2_linear_1356_2374)"/>
<path d="M35.2609 20.5169L16.2653 9.72544C15.8792 9.41978 15.3976 9.26005 14.9054 9.27432C14.4131 9.28859 13.9417 9.47594 13.5739 9.80345L29.7742 26.0037L35.2609 20.5169Z" fill="url(#paint3_linear_1356_2374)"/>
<path opacity="0.2" d="M35.1049 31.3733L16.2653 42.0998C15.8907 42.3824 15.4343 42.5354 14.9651 42.5354C14.4959 42.5354 14.0394 42.3824 13.6649 42.0998L13.5739 42.1908L13.6649 42.2948C14.0394 42.5775 14.4959 42.7304 14.9651 42.7304C15.4343 42.7304 15.8907 42.5775 16.2653 42.2948L35.2609 31.4903L35.1049 31.3733Z" fill="black"/>
<path opacity="0.12" d="M13.5739 42.0217C13.1563 41.506 12.9516 40.8502 13.0018 40.1885V40.3835C12.9576 41.0471 13.1772 41.7013 13.6129 42.2038L13.7039 42.1127L13.5739 42.0217Z" fill="black"/>
<path opacity="0.12" d="M41.6058 27.6939L35.1049 31.3734L35.2219 31.4904L41.6058 27.8759C41.9826 27.7166 42.3095 27.4586 42.5521 27.1291C42.7946 26.7996 42.9438 26.4108 42.984 26.0037C42.9027 26.3737 42.7356 26.7194 42.4962 27.013C42.2569 27.3065 41.9518 27.5398 41.6058 27.6939Z" fill="black"/>
<path opacity="0.25" d="M16.2653 9.90723L41.6058 24.3132C41.9518 24.4673 42.2569 24.7006 42.4962 24.9942C42.7356 25.2878 42.9027 25.6335 42.984 26.0035C42.9438 25.5963 42.7946 25.2075 42.5521 24.878C42.3095 24.5485 41.9826 24.2906 41.6058 24.1312L16.2653 9.7252C14.458 8.68506 12.9628 9.54318 12.9628 11.6235V11.8185C13.0018 9.73821 14.458 8.88009 16.2653 9.90723Z" fill="white"/>
</g>
<defs>
<linearGradient id="paint0_linear_1356_2374" x1="28.344" y1="11.3246" x2="6.52691" y2="33.1417" gradientUnits="userSpaceOnUse">
<stop stop-color="#00A0FF"/>
<stop offset="0.01" stop-color="#00A1FF"/>
<stop offset="0.26" stop-color="#00BEFF"/>
<stop offset="0.51" stop-color="#00D2FF"/>
<stop offset="0.76" stop-color="#00DFFF"/>
<stop offset="1" stop-color="#00E3FF"/>
</linearGradient>
<linearGradient id="paint1_linear_1356_2374" x1="43.9851" y1="26.0037" x2="12.5337" y2="26.0037" gradientUnits="userSpaceOnUse">
<stop stop-color="#FFE000"/>
<stop offset="0.41" stop-color="#FFBD00"/>
<stop offset="0.78" stop-color="#FFA500"/>
<stop offset="1" stop-color="#FF9C00"/>
</linearGradient>
<linearGradient id="paint2_linear_1356_2374" x1="32.2835" y1="28.9941" x2="2.69137" y2="58.5732" gradientUnits="userSpaceOnUse">
<stop stop-color="#FF3A44"/>
<stop offset="1" stop-color="#C31162"/>
</linearGradient>
<linearGradient id="paint3_linear_1356_2374" x1="9.49133" y1="0.234119" x2="22.7012" y2="13.444" gradientUnits="userSpaceOnUse">
<stop stop-color="#32A071"/>
<stop offset="0.07" stop-color="#2DA771"/>
<stop offset="0.48" stop-color="#15CF74"/>
<stop offset="0.8" stop-color="#06E775"/>
<stop offset="1" stop-color="#00F076"/>
</linearGradient>
<clipPath id="clip0_1356_2374">
<rect width="175.524" height="52.0072" fill="white"/>
</clipPath>
</defs>
</svg>
