<svg width="21" height="21" viewBox="0 0 21 21" fill="none" xmlns="http://www.w3.org/2000/svg">
<path fill-rule="evenodd" clip-rule="evenodd" d="M13.8988 6.46679e-07H20.5962C20.7033 6.46679e-07 20.806 0.0425487 20.8817 0.118285C20.9575 0.19402 21 0.29674 21 0.403847V7.10123C21.0001 7.18121 20.9765 7.25943 20.9322 7.32597C20.8878 7.39252 20.8247 7.44439 20.7508 7.47502C20.6769 7.50564 20.5956 7.51364 20.5172 7.498C20.4387 7.48236 20.3667 7.44378 20.3102 7.38715L17.8177 4.89462L11.76 10.9523C11.5303 11.1663 11.2266 11.2828 10.9127 11.2773C10.5988 11.2717 10.2994 11.1446 10.0774 10.9226C9.85541 10.7006 9.72825 10.4012 9.72272 10.0873C9.71718 9.77344 9.83369 9.46967 10.0477 9.24L16.1054 3.18231L13.6128 0.68977C13.5562 0.633288 13.5176 0.561265 13.502 0.482832C13.4864 0.404398 13.4944 0.323086 13.525 0.249203C13.5556 0.175321 13.6075 0.112196 13.674 0.0678305C13.7406 0.0234652 13.8188 -0.000142448 13.8988 6.46679e-07ZM2.82692 1.61539C2.07718 1.61539 1.35814 1.91322 0.827987 2.44337C0.297836 2.97352 0 3.69256 0 4.44231V18.1731C0 19.7335 1.26646 21 2.82692 21H16.5577C17.3074 21 18.0265 20.7022 18.5566 20.172C19.0868 19.6419 19.3846 18.9228 19.3846 18.1731V12.5192C19.3846 12.1979 19.257 11.8898 19.0298 11.6625C18.8026 11.4353 18.4944 11.3077 18.1731 11.3077C17.8518 11.3077 17.5436 11.4353 17.3164 11.6625C17.0892 11.8898 16.9615 12.1979 16.9615 12.5192V18.1731C16.9615 18.2802 16.919 18.3829 16.8433 18.4586C16.7675 18.5344 16.6648 18.5769 16.5577 18.5769H2.82692C2.71982 18.5769 2.6171 18.5344 2.54136 18.4586C2.46562 18.3829 2.42308 18.2802 2.42308 18.1731V4.44231C2.42308 4.3352 2.46562 4.23248 2.54136 4.15675C2.6171 4.08101 2.71982 4.03846 2.82692 4.03846H8.48077C8.80209 4.03846 9.11025 3.91082 9.33746 3.68361C9.56466 3.4564 9.69231 3.14824 9.69231 2.82692C9.69231 2.5056 9.56466 2.19744 9.33746 1.97024C9.11025 1.74303 8.80209 1.61539 8.48077 1.61539H2.82692Z" fill="#38B6E9"/>
</svg>
